<?xml version="1.0" standalone="no"?>
<!DOCTYPE svg PUBLIC "-//W3C//DTD SVG 20010904//EN"
 "http://www.w3.org/TR/2001/REC-SVG-20010904/DTD/svg10.dtd">
<svg version="1.0" xmlns="http://www.w3.org/2000/svg"
 width="503.000000pt" height="126.000000pt" viewBox="0 0 503.000000 126.000000"
 preserveAspectRatio="xMidYMid meet">

<g transform="translate(0.000000,126.000000) scale(0.100000,-0.100000)"
fill="#000000" stroke="none">
<path d="M465 1175 c-69 -34 -93 -58 -106 -110 -7 -28 -22 -55 -40 -69 -34
-29 -37 -46 -9 -46 15 0 20 -7 20 -26 0 -24 -2 -26 -34 -20 -29 6 -35 3 -41
-14 -3 -11 -4 -24 0 -30 3 -5 -7 -29 -23 -52 -83 -120 -133 -253 -157 -413
-21 -140 -15 -174 37 -221 92 -83 228 -112 376 -80 127 27 125 25 139 148 11
102 13 110 64 193 43 70 53 96 57 143 2 32 11 65 20 75 15 16 13 20 -18 48
l-33 30 32 29 c52 48 68 122 33 153 -21 19 -37 23 -26 6 4 -7 0 -9 -14 -5 -26
9 -62 -40 -69 -93 -4 -31 -1 -43 17 -61 22 -22 22 -24 6 -36 -10 -7 -15 -17
-12 -22 3 -5 -6 -19 -19 -32 -20 -19 -25 -20 -30 -8 -3 8 -5 19 -3 24 2 5 -1
10 -7 12 -16 5 -29 -66 -17 -93 8 -18 8 -26 -2 -34 -10 -9 -25 5 -65 59 -28
39 -51 73 -51 75 0 3 7 5 15 5 21 0 19 13 -5 35 -26 23 -18 30 33 30 39 0 43
3 67 46 14 25 30 44 37 42 18 -6 25 14 15 49 -13 49 4 74 48 70 l35 -2 -32 30
c-18 16 -33 33 -33 37 0 4 -7 26 -16 49 -12 32 -26 46 -60 63 -24 12 -46 26
-49 32 -9 14 -25 11 -80 -16z m321 -288 c14 -44 -29 -127 -66 -127 -45 0 -50
88 -7 123 12 10 16 15 8 11 -9 -4 -12 -3 -8 3 11 17 67 10 73 -10z"/>
<path d="M1142 894 c-46 -32 -52 -60 -52 -261 0 -206 9 -245 60 -270 31 -16
395 -18 434 -3 14 5 35 24 46 42 19 31 20 47 18 241 l-3 209 -33 29 -32 29
-208 0 c-172 0 -211 -3 -230 -16z m148 -159 l0 -65 80 0 80 0 0 65 c0 63 1 65
25 65 l25 0 0 -165 0 -165 -25 0 c-24 0 -25 2 -25 75 l0 76 -77 -3 -78 -3 -3
-72 c-3 -70 -4 -73 -27 -73 l-25 0 0 165 0 165 25 0 c24 0 25 -2 25 -65z"/>
<path d="M1772 895 c-54 -24 -62 -58 -62 -270 0 -282 -8 -275 282 -275 l208 0
32 29 33 29 3 200 c5 306 8 302 -280 302 -136 -1 -191 -4 -216 -15z m299 -118
c69 -46 90 -152 47 -237 -55 -107 -201 -107 -255 0 -63 122 5 260 127 260 32
0 58 -7 81 -23z"/>
<path d="M1953 750 c-52 -21 -75 -106 -48 -176 19 -49 38 -64 85 -64 46 0 66
14 85 62 42 105 -33 216 -122 178z"/>
<path d="M2382 894 c-46 -32 -52 -60 -52 -261 0 -206 9 -245 60 -270 31 -16
395 -18 434 -3 14 5 35 24 46 42 19 31 20 47 18 241 l-3 209 -33 29 -32 29
-208 0 c-172 0 -211 -3 -230 -16z m198 -239 l0 -145 70 0 c63 0 70 -2 70 -20
0 -19 -7 -20 -100 -20 l-100 0 0 165 0 165 30 0 30 0 0 -145z"/>
<path d="M3002 894 c-46 -32 -52 -60 -52 -261 0 -206 9 -245 60 -270 31 -16
395 -18 434 -3 14 5 35 24 46 42 19 31 20 47 18 241 l-3 209 -33 29 -32 29
-208 0 c-172 0 -211 -3 -230 -16z m177 -187 c18 -50 38 -103 43 -117 9 -22 14
-13 51 90 41 112 43 115 75 118 l32 3 0 -165 0 -166 -25 0 -25 0 0 128 -1 127
-42 -110 c-25 -64 -49 -110 -56 -110 -8 0 -32 46 -57 110 l-43 110 0 -127 c-1
-121 -2 -128 -21 -128 -19 0 -20 7 -20 165 l0 165 28 0 c25 0 29 -7 61 -93z"/>
<path d="M3617 890 c-39 -31 -47 -77 -47 -260 0 -193 8 -233 53 -260 29 -18
52 -20 235 -20 l204 0 34 34 34 34 0 206 c0 138 -4 214 -12 231 -22 50 -49 55
-271 55 -191 0 -206 -1 -230 -20z m343 -115 c0 -24 -2 -25 -75 -25 l-75 0 0
-45 0 -45 65 0 c58 0 65 -2 65 -20 0 -18 -7 -20 -65 -20 l-65 0 0 -55 0 -55
80 0 c73 0 80 -2 80 -20 0 -19 -7 -20 -105 -20 l-105 0 0 165 0 165 100 0 100
0 0 -25z"/>
<path d="M4254 894 c-51 -25 -58 -52 -62 -233 -5 -204 1 -245 38 -283 l28 -28
207 0 c224 0 251 5 273 55 15 32 17 401 2 439 -5 14 -24 35 -42 46 -30 18 -51
20 -223 20 -150 0 -196 -4 -221 -16z m296 -109 c33 -17 37 -27 17 -43 -8 -7
-19 -6 -37 3 -51 29 -110 12 -110 -31 0 -22 10 -30 74 -59 77 -35 96 -55 96
-100 0 -39 -18 -65 -55 -81 -47 -19 -92 -17 -142 6 -45 20 -52 30 -30 49 10 8
23 6 52 -9 49 -25 76 -25 105 -2 18 14 21 25 17 44 -5 20 -22 32 -73 54 -72
31 -94 53 -94 99 0 54 38 84 108 85 24 0 56 -7 72 -15z"/>
<path d="M623 813 c15 -17 17 -27 9 -57 -10 -35 0 -52 12 -20 12 31 6 61 -16
80 l-23 19 18 -22z"/>
</g>
</svg>
